<!-- <svg width="100" height="100" viewBox="0 0 100 100" class="icon icon-big-arrow" fill="none" xmlns="http://www.w3.org/2000/svg">
	<path d="M50 55.4314L64.4314 41L66 42.5686L50 58.5686L34 42.5686L35.5686 41L50 55.4314Z" fill="currentColor"></path>
</svg> -->

<svg aria-hidden="true" class="e-font-icon-svg e-eicon-chevron-left" viewBox="0 0 1000 1000" xmlns="http://www.w3.org/2000/svg">
<path d="M646 125C629 125 613 133 604 142L308 442C296 454 292 471 292 487 292 504 296 521 308 533L604 854C617 867 629 875 646 875 663 875 679 871 692 858 704 846 713 829 713 812 713 796 708 779 692 767L438 487 692 225C700 217 708 204 708 187 708 171 704 154 692 142 675 129 663 125 646 125Z">
</path>
</svg>